<?xml version="1.0" standalone="no"?>
<!DOCTYPE svg PUBLIC "-//W3C//DTD SVG 20010904//EN"
 "http://www.w3.org/TR/2001/REC-SVG-20010904/DTD/svg10.dtd">
<svg version="1.0" xmlns="http://www.w3.org/2000/svg"
 width="1200.000000pt" height="1200.000000pt" viewBox="0 0 1200.000000 1200.000000"
 preserveAspectRatio="xMidYMid meet">

<g transform="translate(0.000000,1200.000000) scale(0.100000,-0.100000)"
fill="#000000" stroke="none">
<path d="M5713 10639 c-331 -39 -666 -181 -868 -371 -74 -68 -95 -114 -100
-212 l-4 -69 -123 -81 c-76 -50 -135 -97 -154 -123 -66 -88 -128 -292 -155
-513 -14 -113 -6 -358 16 -475 22 -119 21 -125 -17 -125 -37 0 -66 -21 -94
-65 -42 -65 -11 -295 59 -449 52 -111 100 -180 199 -283 101 -107 118 -138
148 -273 76 -342 202 -638 377 -883 78 -109 258 -288 368 -366 237 -167 464
-240 713 -228 265 12 528 140 760 369 255 252 424 569 562 1054 30 105 62 196
77 219 14 22 70 83 123 135 142 140 183 237 215 515 17 147 11 199 -25 235
-26 26 -66 35 -97 21 -22 -10 -25 -9 -20 4 22 55 41 258 41 425 0 212 -14 314
-69 477 -167 498 -584 869 -1130 1007 -237 59 -571 82 -802 55z"/>
<path d="M4780 6354 c-79 -55 -267 -147 -415 -204 -589 -226 -878 -358 -1090
-497 -207 -137 -346 -256 -472 -407 -191 -227 -313 -466 -388 -760 -64 -250
-70 -321 -69 -801 1 -592 1 -593 196 -740 489 -367 1184 -630 2043 -774 153
-26 476 -71 506 -71 5 0 9 70 9 165 0 189 8 220 64 257 30 19 36 30 41 68 14
125 28 188 55 258 85 220 269 395 498 475 72 25 107 31 208 35 141 5 226 -7
335 -49 192 -74 361 -236 445 -424 34 -79 64 -208 64 -281 0 -59 1 -61 35 -77
63 -30 75 -71 75 -260 l0 -164 28 4 c274 30 791 123 1054 189 552 138 1073
370 1431 637 176 133 177 134 207 377 89 723 6 1278 -253 1696 -188 303 -424
525 -771 724 -166 95 -330 170 -676 307 -173 68 -353 140 -400 159 -103 43
-283 137 -327 170 l-32 24 -59 -77 c-246 -323 -609 -606 -897 -700 -109 -35
-263 -38 -380 -5 -120 33 -323 139 -449 232 -134 101 -352 312 -458 445 -44
55 -83 103 -87 107 -3 4 -35 -13 -71 -38z"/>
<path d="M5881 2934 c-149 -54 -242 -174 -265 -341 l-6 -43 401 0 402 0 -6 59
c-11 125 -96 245 -215 303 -59 29 -76 33 -166 35 -73 2 -113 -1 -145 -13z"/>
</g>
</svg>
